# xmcd CD database file
#
# Track frame offsets:
#	150
#	11190
#	28102
#	44292
#	62542
#	77005
#	95132
#	119440
#	136597
#	152440
#	172002
#	193047
#
# Disc length: 2798 seconds
#
# Revision: 34
# Processed by: cddbd v1.5.2PL0 Copyright (c) Steve Scherf et al.
# Submitted via: CDex 1.77
#
DISCID=990aec0c
DTITLE=Asian Kung-Fu Generation - Sol-Fa
DYEAR=2004
DGENRE=J-Rock
TTITLE0=Shindokaku
TTITLE1=Rewrite
TTITLE2=Kimi no Machi Made
TTITLE3=My World
TTITLE4=Yoru no Muko
TTITLE5=Last Scene
TTITLE6=Siren
TTITLE7=Re:Re:
TTITLE8=Nijuyoji
TTITLE9=Mayonaka to Mahiru no Yume
TTITLE10=Kaigan Dori
TTITLE11=Loop and Loop
EXTD=YEAR: 2004
EXTT0=
EXTT1=
EXTT2=
EXTT3=
EXTT4=
EXTT5=
EXTT6=
EXTT7=
EXTT8=
EXTT9=
EXTT10=
EXTT11=
PLAYORDER=
